<svg version="1.2" xmlns="http://www.w3.org/2000/svg" viewBox="0 0 1000 1000" width="160" height="160"><style>.a{fill:#ff4c4c}.b{mix-blend-mode:overlay;fill:#fff}.c{fill:#00b5e8}.d{fill:#fff}.e{fill:#c63f3f}.f{opacity:.5;fill:#7f2d2d}.g{fill:#00b7ea}</style><path class="a" d="m947.2 311.4c0 73.6-29.8 140.2-78.1 188.5-48.2 48.2-114.8 78.1-188.5 78.1h-147c-73.6 0-140.2 29.8-188.4 78-48.2 48.2-78 114.8-78 188.4v-266.4c0-73.7 29.8-140.3 78-188.6 48.3-48.2 114.9-78 188.5-78z"/><path class="b" d="m947.2 311.4c0 73.6-29.8 140.2-78 188.5-4.9 4.9-10 9.6-15.3 14.1 45.1-47.7 72.6-112.1 72.6-182.9h-413.4c-66.2 0-126.7 24-173.2 63.9q2.6-2.8 5.3-5.6c48.3-48.2 114.9-78 188.5-78z"/><path class="c" d="m947.2 274.6h-529.6c-11.6 0-23-0.7-34.2-2.1-59.9-7.7-113.7-35.3-154.3-76-48.3-48.2-78.1-114.8-78.1-188.5h529.7c73.6 0 140.2 29.9 188.5 78.1 16.4 16.4 30.7 35 42.4 55.2 22.7 39.2 35.6 84.8 35.6 133.3z"/><path class="a" d="m947.2 274.6h-529.6c-11.6 0-23-0.7-34.2-2.1-59.9-7.7-113.7-35.3-154.3-76-48.3-48.2-78.1-114.8-78.1-188.5h529.7c73.6 0 140.2 29.9 188.5 78.1 16.4 16.4 30.7 35 42.4 55.2 22.7 39.2 35.6 84.8 35.6 133.3z"/><g style="mix-blend-mode:overlay"><path class="d" d="m947.2 274.6h-18.8c-2.8-41.7-15.2-80.8-35-115.1-11.7-20.2-26-38.8-42.4-55.2-48.3-48.2-114.9-78.1-188.5-78.1h-510.9c-0.4-6-0.6-12.1-0.6-18.2h529.7c73.6 0 140.2 29.9 188.5 78.1 16.4 16.4 30.7 35 42.4 55.2 22.7 39.2 35.6 84.8 35.6 133.3z"/></g><path class="e" d="m533.7 578v146.8q0 4.5-0.1 8.9c-1.3 39.7-11.3 77.2-28.1 110.7-12.9 25.6-29.7 48.8-49.8 68.9-48.3 48.3-114.9 78.1-188.5 78.1v-147c0-73.6 29.8-140.2 78-188.4 48.2-48.2 114.8-78 188.4-78z"/><path class="f" d="m533.7 578v38.4h-0.1c-73.6 0-140.2 29.8-188.4 78-48.2 48.2-78 114.8-78 188.4v-38.4c0-73.6 29.8-140.2 78-188.4 48.2-48.2 114.8-78 188.4-78z"/><path class="g" d="m533.4 274.4v0.2h-1.9v-0.2z"/></svg>